<svg id="color" enable-background="new 0 0 24 24" height="512" viewBox="0 0 24 24" width="512" xmlns="http://www.w3.org/2000/svg"><path d="m22 2.75c0-1.519-1.231-2.75-2.75-2.75h-14.5c-1.519 0-2.75 1.231-2.75 2.75v18.5c0 1.519 1.231 2.75 2.75 2.75h14.5c1.519 0 2.75-1.231 2.75-2.75z" fill="#eceff1"/><path d="m12 0h-7.25c-1.519 0-2.75 1.231-2.75 2.75v18.5c0 1.519 1.231 2.75 2.75 2.75h7.25z" fill="#cdd0d2"/><path d="m13 14h-2c-.553 0-1-.448-1-1s.447-1 1-1h2c.553 0 1 .448 1 1s-.447 1-1 1z" fill="#607d8b"/><path d="m12 12h-1c-.553 0-1 .448-1 1s.447 1 1 1h1z" fill="#546d79"/><path d="m16 17h-1c-.553 0-1-.448-1-1s.447-1 1-1h1v-2c0-.364.098-.706.269-1-.171-.294-.269-.636-.269-1v-1h-1c-.553 0-1-.448-1-1s.447-1 1-1h1c1.103 0 2 .897 2 2v1c.553 0 1 .448 1 1s-.447 1-1 1v2c0 1.103-.897 2-2 2z" fill="#607d8b"/><path d="m9 17h-1c-1.103 0-2-.897-2-2v-2c-.553 0-1-.448-1-1s.447-1 1-1v-1c0-1.103.897-2 2-2h1c.553 0 1 .448 1 1s-.447 1-1 1h-1v1c0 .364-.098.706-.269 1 .171.294.269.636.269 1v2h1c.553 0 1 .448 1 1s-.447 1-1 1z" fill="#607d8b"/><g fill="#546d79"><path d="m19 12h-2.731c-.171.294-.269.636-.269 1v2h-1c-.553 0-1 .448-1 1s.447 1 1 1h1c1.103 0 2-.897 2-2v-2c.553 0 1-.448 1-1z"/><path d="m7.731 12h-2.731c0 .552.447 1 1 1v2c0 1.103.897 2 2 2h1c.553 0 1-.448 1-1s-.447-1-1-1h-1v-2c0-.364-.098-.706-.269-1z"/></g></svg>